<svg width="132" height="38" viewBox="0 0 132 38" fill="none" xmlns="http://www.w3.org/2000/svg">
<path fill-rule="evenodd" clip-rule="evenodd" d="M83.0148 10.9946L80.8359 7.34054L76.9684 9.16757L74.7896 5.5027L70.9221 7.34054L68.7541 3.66486L64.8866 5.5027L62.7078 1.83784L58.8403 3.67568L56.6723 0L52.794 1.83784L44.5905 28.3459L54.5588 31.373C54.9343 30.1782 55.7281 29.1561 56.7968 28.4914C57.8654 27.8267 59.1384 27.5632 60.3857 27.7486C61.633 27.934 62.7723 28.5561 63.5978 29.5023C64.4233 30.4485 64.8804 31.6566 64.8866 32.9081V33.0162C64.9084 33.4919 64.854 33.9676 64.7123 34.4432L74.844 37.5243L83.0148 10.9946Z" fill="#D61920"/>
<path fill-rule="evenodd" clip-rule="evenodd" d="M53.1425 26.1621C52.8906 26.1208 52.6618 25.9911 52.4979 25.7968C52.334 25.6024 52.2458 25.3561 52.2492 25.1027V12.1297C52.2478 11.9873 52.2749 11.8461 52.3292 11.7143C52.3834 11.5825 52.4636 11.4627 52.5651 11.362C52.6665 11.2614 52.7872 11.1818 52.92 11.128C53.0529 11.0742 53.1952 11.0472 53.3386 11.0486H62.784C63.3405 11.0472 63.8919 11.1546 64.4066 11.3646C64.9213 11.5746 65.3893 11.8832 65.7838 12.2727C66.1784 12.6622 66.4917 13.125 66.706 13.6347C66.9203 14.1444 67.0314 14.691 67.0328 15.2432V25.1027C67.0325 25.2619 66.9968 25.4191 66.9282 25.563C66.8596 25.7069 66.7598 25.8341 66.6359 25.9353C66.5121 26.0365 66.3672 26.1093 66.2117 26.1485C66.0562 26.1877 65.8939 26.1924 65.7364 26.1621C65.4864 26.1185 65.2602 25.9878 65.0985 25.7937C64.9368 25.5995 64.8501 25.3545 64.8539 25.1027V15.254C64.8539 14.7093 64.6358 14.1868 64.2477 13.8016C63.8595 13.4164 63.333 13.2 62.784 13.2H60.725V25.0919C60.7258 25.2367 60.6973 25.3803 60.6412 25.514C60.5851 25.6477 60.5024 25.7688 60.3982 25.8702C60.2741 25.9923 60.1221 26.0826 59.9551 26.1335C59.7881 26.1843 59.6111 26.1942 59.4395 26.1621C59.1875 26.1208 58.9588 25.9911 58.7949 25.7968C58.631 25.6024 58.5427 25.3561 58.5461 25.1027V13.2H54.4281V25.0919C54.4291 25.2509 54.3947 25.4082 54.3275 25.5525C54.2602 25.6969 54.1617 25.8247 54.0389 25.9269C53.9161 26.0291 53.7721 26.1032 53.6172 26.1439C53.4623 26.1845 53.3002 26.1908 53.1425 26.1621ZM68.8521 31.8162C68.5983 31.7746 68.3681 31.6434 68.2039 31.4467C68.0398 31.2501 67.9527 31.0012 67.9588 30.7459C67.96 30.4623 68.0735 30.1905 68.2747 29.9892C68.4759 29.7855 68.75 29.6689 69.0373 29.6648C69.9634 29.6648 70.7586 29.0811 71.0201 28.2054L72.1422 24.4973L68.4708 12.3135C68.4271 12.1772 68.4109 12.0337 68.4235 11.8912C68.436 11.7487 68.4768 11.6101 68.5437 11.4834C68.6106 11.3567 68.7021 11.2445 68.8131 11.1531C68.924 11.0618 69.052 10.9932 69.1899 10.9513C69.4643 10.8758 69.7574 10.9078 70.0088 11.0406C70.2602 11.1733 70.4506 11.3968 70.5408 11.6648L73.2643 20.7459L76.0315 11.6648C76.1622 11.1675 76.7178 10.8324 77.2843 10.9405L77.3606 10.9513C77.9489 11.1351 78.2757 11.7513 78.1014 12.3243L74.3211 24.8216L73.1227 28.8216C72.8538 29.6824 72.3205 30.4384 71.5975 30.9838C70.8621 31.5311 69.9675 31.827 69.0482 31.827C68.9827 31.8295 68.917 31.8259 68.8521 31.8162Z" fill="#FEFEFE"/>
<path fill-rule="evenodd" clip-rule="evenodd" d="M2.26612 23.7947H4.40141C4.97061 23.7947 5.5165 23.5703 5.91899 23.1709C6.32147 22.7715 6.54759 22.2298 6.54759 21.6649V15.4271C6.54902 15.1474 6.49493 14.8702 6.3884 14.6112C6.28187 14.3523 6.12498 14.1167 5.9267 13.918C5.72842 13.7192 5.49263 13.5611 5.23279 13.4528C4.97295 13.3445 4.69415 13.288 4.4123 13.2865H2.26612V23.773V23.7947ZM0.926125 26.0217C0.664539 25.9778 0.427393 25.8426 0.257557 25.6403C0.0877212 25.4381 -0.00359765 25.1822 0.000108535 24.919V5.546C-0.00181714 5.39778 0.0260998 5.25067 0.0822222 5.1133C0.138345 4.97592 0.221543 4.85105 0.326938 4.746C0.454451 4.61461 0.61254 4.51632 0.787305 4.45977C0.962071 4.40322 1.14816 4.39014 1.32921 4.42168C1.87393 4.52979 2.26612 4.98384 2.26612 5.53519V11.0487H4.40141C4.98031 11.0473 5.55381 11.1592 6.08906 11.3781C6.62431 11.5969 7.11079 11.9184 7.52065 12.3241C7.9305 12.7298 8.25567 13.2118 8.47754 13.7424C8.6994 14.273 8.81361 14.8418 8.81361 15.4163V21.6541C8.81073 22.8116 8.3461 23.9208 7.52132 24.7393C6.69654 25.5578 5.57872 26.0188 4.4123 26.0217H1.13312C1.06031 26.026 0.987247 26.0223 0.915231 26.0109L0.926125 26.0217Z" fill="#333545"/>
<path fill-rule="evenodd" clip-rule="evenodd" d="M16.4941 13.1999C16.3718 13.1787 16.2478 13.1679 16.1237 13.1675C15.841 13.1646 15.5606 13.2177 15.2989 13.3237C15.0372 13.4297 14.7995 13.5865 14.5996 13.7848C14.3997 13.9832 14.2418 14.2191 14.1349 14.4788C14.0281 14.7385 13.9746 15.0168 13.9775 15.2972V21.7945C13.9761 22.0746 14.0306 22.3522 14.1379 22.6112C14.2453 22.8703 14.4033 23.1056 14.6029 23.3037C14.8025 23.5017 15.0396 23.6585 15.3007 23.7651C15.5617 23.8716 15.8414 23.9257 16.1237 23.9243C16.6929 23.9243 17.2388 23.6999 17.6413 23.3005C18.0437 22.9011 18.2699 22.3594 18.2699 21.7945V15.3081C18.2699 14.2594 17.5181 13.3837 16.4941 13.1999ZM15.3502 26.1189C14.3287 25.9405 13.4036 25.41 12.7378 24.6208C12.0721 23.8316 11.7086 22.8345 11.7115 21.8053V15.3081C11.7096 14.733 11.8232 14.1634 12.0458 13.6325C12.2684 13.1016 12.5955 12.6201 13.0079 12.2162C13.417 11.8103 13.9028 11.4887 14.4375 11.2698C14.9722 11.0509 15.5452 10.939 16.1237 10.9405C17.291 10.9405 18.4105 11.4006 19.2359 12.2197C20.0613 13.0388 20.525 14.1497 20.525 15.3081V21.8053C20.525 22.9729 20.0674 24.0756 19.2286 24.908C18.8211 25.3131 18.3371 25.6343 17.8043 25.8532C17.2715 26.0721 16.7004 26.1844 16.1237 26.1837C15.8644 26.1848 15.6056 26.1631 15.3502 26.1189ZM28.2055 13.2108C28.0832 13.1895 27.9592 13.1786 27.8351 13.1783C27.5524 13.1754 27.272 13.2285 27.0103 13.3345C26.7486 13.4406 26.5109 13.5973 26.311 13.7957C26.1111 13.994 25.9531 14.2299 25.8463 14.4896C25.7395 14.7493 25.686 15.0276 25.6889 15.3081V21.8053C25.6874 22.0854 25.742 22.363 25.8493 22.622C25.9566 22.8811 26.1147 23.1164 26.3143 23.3145C26.5138 23.5125 26.751 23.6694 27.012 23.7759C27.2731 23.8824 27.5528 23.9365 27.8351 23.9351C28.1173 23.9365 28.397 23.8824 28.6581 23.7759C28.9191 23.6694 29.1563 23.5125 29.3559 23.3145C29.5554 23.1164 29.7135 22.8811 29.8208 22.622C29.9282 22.363 29.9827 22.0854 29.9812 21.8053V15.3081C29.9812 14.2702 29.2295 13.3945 28.2055 13.2108ZM27.0616 26.1189C26.0421 25.9383 25.1195 25.4067 24.4559 24.6178C23.7924 23.8288 23.4305 22.833 23.4338 21.8053V15.3081C23.4355 14.6709 23.5773 14.0418 23.8493 13.4647C24.1213 12.8876 24.517 12.3763 25.0087 11.9666C25.5004 11.5569 26.0763 11.2586 26.6962 11.0926C27.3161 10.9266 27.965 10.8968 28.5977 11.0053C29.6193 11.1811 30.5455 11.7091 31.2132 12.4962C31.8809 13.2834 32.2471 14.2792 32.2472 15.3081V21.8053C32.2486 22.3829 32.1336 22.9548 31.9091 23.4876C31.6846 24.0204 31.3551 24.5034 30.9399 24.908C30.5325 25.3131 30.0485 25.6343 29.5157 25.8532C28.9829 26.0721 28.4117 26.1844 27.8351 26.1837C27.5736 26.1837 27.3121 26.1621 27.0616 26.1189ZM36.0712 26.1621C35.8096 26.1183 35.5724 25.983 35.4026 25.7807C35.2327 25.5785 35.1414 25.3226 35.1451 25.0594V5.54589C35.1451 5.24319 35.2541 4.9513 35.472 4.74589C35.6005 4.62 35.7577 4.52674 35.9303 4.47405C36.1029 4.42135 36.2858 4.41076 36.4633 4.44319C37.0081 4.52967 37.4112 4.99454 37.4112 5.54589V17.0918L42.6186 11.2972C42.8801 11.0162 43.2723 10.8864 43.6645 10.9513C43.8622 10.9841 44.0475 11.0689 44.201 11.1969C44.3545 11.3249 44.4707 11.4913 44.5374 11.6789C44.6042 11.8666 44.619 12.0685 44.5805 12.2637C44.5419 12.459 44.4513 12.6404 44.3181 12.7891L40.3853 17.1459L44.4489 24.5297C44.522 24.6542 44.5694 24.792 44.5881 24.935C44.6068 25.0779 44.5965 25.2232 44.5578 25.3621C44.5157 25.5053 44.4448 25.6386 44.3493 25.7538C44.2538 25.869 44.1357 25.9638 44.0022 26.0324C43.7715 26.164 43.5013 26.2099 43.2396 26.1621C43.0768 26.1348 42.9222 26.0722 42.7866 25.9788C42.651 25.8853 42.5378 25.7634 42.4552 25.6216L38.7947 18.9405L37.4003 20.4648V25.0594C37.4003 25.3576 37.2809 25.6436 37.0684 25.8544C36.8559 26.0653 36.5677 26.1837 36.2673 26.1837C36.191 26.1837 36.1256 26.1837 36.0494 26.1621H36.0712ZM85.978 26.1513C85.3653 26.0495 84.7833 25.8132 84.2744 25.4597C83.7656 25.1062 83.3426 24.6444 83.0365 24.108C82.8868 23.8453 82.8477 23.5345 82.9276 23.2432C83.0147 22.9621 83.1999 22.7243 83.4505 22.5729C83.6831 22.4468 83.9527 22.4048 84.2131 22.454C84.5399 22.508 84.8341 22.7026 84.9975 22.9945C85.2916 23.4918 85.7601 23.8162 86.3375 23.9135C86.6352 23.9648 86.9407 23.9486 87.2312 23.8663C87.5218 23.7839 87.7898 23.6374 88.0152 23.4378C88.451 23.0378 88.6689 22.4648 88.6144 21.9026C88.6023 21.6145 88.522 21.3332 88.3801 21.0816C88.2381 20.8299 88.0385 20.6149 87.7973 20.454L84.7469 18.3026C84.2499 17.9563 83.836 17.5055 83.5347 16.9823C83.2335 16.4591 83.0522 15.8763 83.0038 15.2756C82.9644 14.6695 83.0646 14.0625 83.2968 13.5006C83.5289 12.9386 83.887 12.4366 84.3438 12.0324C84.7895 11.6212 85.3219 11.3138 85.9023 11.1324C86.4828 10.951 87.0966 10.9002 87.6993 10.9837C88.9848 11.1999 90.0307 11.9351 90.6299 12.9729C90.7742 13.2323 90.8118 13.537 90.7346 13.8233C90.6574 14.1095 90.4715 14.3549 90.2159 14.5081C89.9852 14.6396 89.7149 14.6856 89.4533 14.6378C89.2905 14.6105 89.1358 14.5479 89.0002 14.4544C88.8646 14.361 88.7515 14.239 88.6689 14.0972C88.5322 13.8679 88.346 13.6714 88.1238 13.5218C87.9015 13.3723 87.6487 13.2735 87.3833 13.2324C87.1119 13.1836 86.8327 13.1983 86.568 13.2752C86.3032 13.3522 86.0602 13.4893 85.8581 13.6756C85.6609 13.8604 85.5069 14.0859 85.4071 14.3362C85.3073 14.5866 85.2642 14.8556 85.2807 15.1243C85.3025 15.654 85.6076 16.1729 86.0651 16.4756L89.1155 18.5837C89.6334 18.9435 90.0615 19.4159 90.3674 19.9648C90.6732 20.5138 90.8487 21.1248 90.8804 21.7513C90.9309 22.3748 90.8341 23.0015 90.5977 23.5814C90.3613 24.1613 89.9918 24.6785 89.5186 25.0918C89.0584 25.5162 88.5087 25.8334 87.9094 26.0204C87.3101 26.2074 86.6764 26.2595 86.0542 26.1729L85.9671 26.1513H85.978ZM94.7261 26.1837C94.4644 26.1381 94.2272 26.0027 94.056 25.8011C93.8847 25.5995 93.7903 25.3447 93.7892 25.081V5.56751C93.7877 5.41946 93.8161 5.27261 93.8725 5.13555C93.9289 4.99849 94.0123 4.87397 94.1178 4.76928C94.2233 4.66458 94.3488 4.58182 94.4869 4.52583C94.625 4.46984 94.773 4.44174 94.9222 4.44319L95.1401 4.454C95.6848 4.56211 96.0552 5.00535 96.0552 5.56751V11.081H98.2014C98.7798 11.0796 99.3528 11.1916 99.8874 11.4106C100.422 11.6296 100.908 11.9512 101.317 12.3571C101.726 12.7629 102.05 13.245 102.271 13.7755C102.491 14.3061 102.604 14.8746 102.603 15.4486V25.0702C102.604 25.2334 102.568 25.3949 102.499 25.5431C102.431 25.6913 102.33 25.8227 102.204 25.9279C102.078 26.0331 101.931 26.1096 101.772 26.1519C101.613 26.1943 101.446 26.2014 101.284 26.1729C100.74 26.0756 100.348 25.6108 100.348 25.0594V15.4378C100.348 15.1586 100.292 14.8822 100.184 14.6244C100.076 14.3666 99.9178 14.1325 99.7183 13.9356C99.5189 13.7387 99.2822 13.5829 99.0219 13.477C98.7616 13.3712 98.4827 13.3174 98.2014 13.3189H96.0552V25.0702C96.0564 25.2345 96.021 25.3971 95.9515 25.5462C95.8819 25.6954 95.7799 25.8274 95.6529 25.9328C95.5258 26.0382 95.3768 26.1144 95.2166 26.1559C95.0564 26.1974 94.8889 26.2032 94.7261 26.1729V26.1837ZM110.283 13.2216C109.974 13.166 109.657 13.1786 109.354 13.2584C109.051 13.3383 108.769 13.4836 108.529 13.6838C108.288 13.8841 108.095 14.1344 107.964 14.417C107.832 14.6996 107.765 15.0075 107.767 15.3189V21.8162C107.765 22.0953 107.819 22.372 107.926 22.6304C108.033 22.8887 108.19 23.1235 108.388 23.3215C108.587 23.5194 108.822 23.6764 109.082 23.7836C109.342 23.8907 109.621 23.9459 109.902 23.9459C110.468 23.9459 111.013 23.7297 111.416 23.3297C111.618 23.132 111.778 22.8963 111.886 22.6363C111.995 22.3764 112.05 22.0975 112.048 21.8162V15.3081C112.048 14.2702 111.307 13.3837 110.272 13.2108L110.283 13.2216ZM109.128 26.108C108.11 25.9298 107.187 25.4004 106.524 24.6132C105.86 23.8261 105.498 22.8317 105.501 21.8053V15.3081C105.501 14.67 105.641 14.0397 105.913 13.4612C106.184 12.8828 106.579 12.3702 107.071 11.9593C107.563 11.5484 108.14 11.2491 108.76 11.0825C109.381 10.9159 110.031 10.8858 110.664 10.9945C111.688 11.1706 112.616 11.7001 113.284 12.4895C113.951 13.2789 114.316 14.2773 114.314 15.3081V21.8053C114.315 22.3811 114.199 22.9512 113.975 23.4821C113.75 24.0131 113.421 24.4942 113.007 24.8972C112.507 25.3952 111.893 25.7654 111.218 25.9763C110.542 26.1872 109.825 26.2324 109.128 26.108Z" fill="#333545"/>
<path fill-rule="evenodd" clip-rule="evenodd" d="M131.712 12.3243C131.749 12.187 131.759 12.0437 131.74 11.9027C131.722 11.7618 131.675 11.6258 131.603 11.5027C131.521 11.3715 131.413 11.258 131.286 11.1688C131.159 11.0797 131.015 11.0168 130.863 10.9838C130.582 10.9311 130.291 10.9868 130.05 11.1395C129.809 11.2922 129.636 11.5303 129.566 11.8054C129.566 11.8595 128.346 16.7351 127.387 20.4432L127.365 20.5189L127.344 20.4432L125.165 11.8162C125.123 11.6056 125.017 11.4129 124.861 11.264C124.705 11.1151 124.507 11.0173 124.293 10.9838C124.229 10.9711 124.163 10.9639 124.097 10.9622C123.596 10.9622 123.16 11.3081 123.019 11.8054C123.008 11.8595 121.788 16.7351 120.84 20.4432L120.818 20.5189L120.796 20.4432C119.87 16.7351 118.617 11.8595 118.617 11.8054C118.566 11.5985 118.455 11.4108 118.299 11.2649C118.142 11.1191 117.946 11.0215 117.735 10.9838C117.554 10.952 117.367 10.9654 117.192 11.0228C117.017 11.0803 116.86 11.1799 116.733 11.3129C116.607 11.4458 116.516 11.6079 116.468 11.7844C116.42 11.961 116.418 12.1465 116.46 12.3243L119.739 25.3297C119.801 25.5681 119.94 25.7796 120.135 25.9319C120.33 26.0843 120.57 26.1689 120.818 26.173C121.352 26.173 121.777 25.827 121.886 25.3297L124.064 16.6919L124.097 16.6162L124.119 16.6919C125.078 20.4432 126.298 25.3405 126.298 25.3405C126.363 25.5742 126.502 25.7811 126.694 25.9309C126.886 26.0807 127.121 26.1656 127.365 26.173C127.616 26.1807 127.862 26.1004 128.059 25.9462C128.257 25.792 128.393 25.5737 128.444 25.3297L131.712 12.3243Z" fill="#333545"/>
</svg>
